<?xml version="1.0" encoding="UTF-8" standalone="no" ?>
<!DOCTYPE svg PUBLIC "-//W3C//DTD SVG 1.1//EN" "http://www.w3.org/Graphics/SVG/1.1/DTD/svg11.dtd">
<svg xmlns="http://www.w3.org/2000/svg" xmlns:xlink="http://www.w3.org/1999/xlink" version="1.1" width="1080" height="1080" viewBox="0 0 1080 1080" xml:space="preserve">
<desc>Created with Fabric.js 5.2.4</desc>
<defs>
</defs>
<g transform="matrix(1 0 0 1 540 540)" id="ce35ecf2-6211-4301-aac7-0e7cc027591c"  >
</g>
<g transform="matrix(1 0 0 1 540 540)" id="6cc0e937-a838-46af-88a0-5de0279da86a"  >
<rect style="stroke: none; stroke-width: 1; stroke-dasharray: none; stroke-linecap: butt; stroke-dashoffset: 0; stroke-linejoin: miter; stroke-miterlimit: 4; fill: rgb(255,255,255); fill-rule: nonzero; opacity: 1;" vector-effect="non-scaling-stroke"  x="-540" y="-540" rx="0" ry="0" width="1080" height="1080" />
</g>
<g transform="matrix(45 0 0 45 540 540)"  >
<path style="stroke: none; stroke-width: 1; stroke-dasharray: none; stroke-linecap: butt; stroke-dashoffset: 0; stroke-linejoin: miter; stroke-miterlimit: 4; fill: rgb(0,0,0); fill-rule: nonzero; opacity: 1;"  transform=" translate(-12.02, -11.5)" d="M 23 3 C 16.38 2.9 12.62 5.420999999999999 9.95 9.030000000000001 C 7.29 12.61 6 17.331 6 22 L 8 22 C 8 20.993 8.07 19.988 8.19 19 L 12 19 C 16.1 19 19.48 15.918 19.94 11.946 C 22.79 10.147 23.17 6.359 23 3 z M 16 11 L 14.5 11 L 14.5 13 L 16 13 C 16.63 12.984 17.2 12.92 17.72 12.812 C 16.95 15.24 14.68 17 12 17 L 8.55 17 C 9.120000000000001 14.488 10.120000000000001 12.149000000000001 11.55 10.219999999999999 C 13.71 7.307999999999999 16.84 5.308999999999999 21 5.032999999999999 C 20.95 8.079 19.9 11 16 11 z M 4 9 L 4 6 L 1 6 L 1 4 L 4 4 L 4 1 L 6 1 L 6 4 L 9 4 L 9 6 L 6 6 L 6 9 L 4 9 z" stroke-linecap="round" />
</g>
</svg>